<?xml version="1.0" encoding="utf-8"?>
<!-- Generator: Adobe Illustrator 20.1.0, SVG Export Plug-In . SVG Version: 6.00 Build 0)  -->
<svg version="1.1" id="Layer_1" xmlns="http://www.w3.org/2000/svg" xmlns:xlink="http://www.w3.org/1999/xlink" x="0px" y="0px"
	 viewBox="0 0 512 512" style="enable-background:new 0 0 512 512;" xml:space="preserve">
<g>
	<g>
		<path d="M255.9,0C114.5,0-0.1,114.6-0.1,256.1S114.5,512,255.9,512S512,397.4,512,256.1S397.4,0,255.9,0z M296.8,318.1
			c7.2,6.4,13.7,19,13.7,38.3c0,27.7-0.3,50.1-0.3,56.8c0,5.5-99.9,5.6-99.9,0.1c0-4.9-0.2-17.9-0.3-35.3
			c-56.2,12.5-68.1-27.8-68.1-27.8c-9.2-23.9-22.4-30.3-22.4-30.3c-18.3-12.9,1.4-12.7,1.4-12.7c20.3,1.4,30.9,21.3,30.9,21.3
			c18,31.6,47.3,22.5,58.8,17.3c1.8-13.3,7.1-22.5,12.8-27.7c-44.8-5.3-92-22.9-92-102.3c0-22.6,7.8-41.1,20.7-55.5
			c-2-5.3-9-26.4,1.9-54.8c0,0,16.9-5.6,55.5,21.2c16.2-4.6,33.3-6.9,50.6-7c17.2,0.1,34.4,2.4,50.6,7
			c38.6-26.8,55.4-21.2,55.4-21.2c11,28.5,4.1,49.5,2,54.8c12.9,14.5,20.7,33,20.7,55.5C389,295.5,341.7,313,296.8,318.1z"/>
	</g>
</g>
</svg>
